<svg height="512pt" viewBox="-2 0 512 512" width="512pt" xmlns="http://www.w3.org/2000/svg"><path d="m398.410156 275.214844 63.546875-63.546875 21.230469 21.230469-63.550781 63.546874zm0 0" fill="#d97f4a"/><path d="m380.007812 69.667969h30.019532v66.046875h-30.019532zm0 0" fill="#d97f4a"/><path d="m98.074219 43.648438h30.023437v66.046874h-30.023437zm0 0" fill="#d97f4a"/><path d="m24.910156 206.875 21.230469-21.226562 63.546875 63.546874-21.230469 21.226563zm0 0" fill="#dd8858"/><path d="m25.914062 133.609375 45.53125-45.535156 21.230469 21.226562-45.535156 45.535157zm0 0" fill="#dd8858"/><path d="m206.953125 196.335938-21.210937-21.246094c8.875-8.863282 13.761718-20.636719 13.761718-33.148438 0-12.515625-4.886718-24.289062-13.761718-33.152344-14.558594-14.535156-22.574219-33.851562-22.574219-54.394531 0-20.539062 8.015625-39.859375 22.570312-54.394531l21.214844 21.246094c-8.875 8.863281-13.765625 20.636718-13.765625 33.148437 0 12.515625 4.890625 24.289063 13.765625 33.152344 14.558594 14.53125 22.574219 33.851563 22.574219 54.394531 0 20.539063-8.015625 39.859375-22.574219 54.394532zm0 0" fill="#d97f4a"/><path d="m54.5 298.472656c-20.539062 0-39.859375-8.015625-54.394531-22.574218l21.246093-21.210938c8.863282 8.875 20.636719 13.765625 33.148438 13.765625 12.515625 0 24.289062-4.890625 33.152344-13.765625 14.535156-14.558594 33.851562-22.578125 54.394531-22.578125 20.539063 0 39.859375 8.019531 54.394531 22.578125l-21.246094 21.210938c-8.863281-8.875-20.636718-13.765626-33.148437-13.765626-12.515625 0-24.285156 4.890626-33.148437 13.765626-14.539063 14.558593-33.855469 22.574218-54.398438 22.574218zm0 0" fill="#d97f4a"/><path d="m153.828125 161.082031-30.019531-.023437c.007812-12.542969-4.859375-24.324219-13.707032-33.171875-8.839843-8.839844-20.609374-13.707031-33.136718-13.707031-.035156 0-.066406 0-.097656 0-20.550782 0-39.855469-7.988282-54.363282-22.5-14.527344-14.527344-22.519531-33.855469-22.503906-54.425782l30.023438.023438c-.011719 12.542968 4.859374 24.324218 13.707031 33.171875 8.839843 8.839843 20.605469 13.707031 33.136719 13.707031h.09375c20.550781 0 39.855468 7.988281 54.367187 22.5 14.527344 14.527344 22.515625 33.855469 22.5 54.425781zm0 0" fill="#d97f4a"/><g fill="#b35f49"><path d="m453.601562 324.492188c-20.539062 0-39.859374-8.015626-54.394531-22.574219-8.863281-8.875-20.636719-13.765625-33.148437-13.765625-12.515625 0-24.285156 4.890625-33.152344 13.765625l-21.242188-21.210938c14.535157-14.558593 33.851563-22.578125 54.394532-22.578125 20.539062 0 39.859375 8.019532 54.394531 22.578125 8.863281 8.875 20.636719 13.765625 33.148437 13.765625 12.515626 0 24.289063-4.890625 33.152344-13.765625l21.242188 21.210938c-14.53125 14.558593-33.851563 22.574219-54.394532 22.574219zm0 0"/><path d="m301.148438 222.355469c-14.554688-14.535157-22.574219-33.851563-22.574219-54.394531 0-20.542969 8.019531-39.863282 22.574219-54.394532 8.878906-8.863281 13.765624-20.636718 13.765624-33.152344 0-12.511718-4.886718-24.285156-13.765624-33.148437l21.214843-21.246094c14.558594 14.535157 22.574219 33.851563 22.574219 54.394531 0 20.542969-8.015625 39.859376-22.574219 54.394532-8.875 8.863281-13.765625 20.636718-13.765625 33.152344 0 12.511718 4.890625 24.285156 13.765625 33.148437zm0 0"/><path d="m354.273438 187.101562c-.015626-20.570312 7.976562-39.898437 22.5-54.425781 14.511718-14.507812 33.816406-22.5 54.367187-22.5h.097656c12.53125 0 24.296875-4.867187 33.136719-13.707031 8.847656-8.847656 13.714844-20.628906 13.707031-33.171875l30.019531-.023437c.015626 20.574218-7.972656 39.902343-22.5 54.425781-14.511718 14.511719-33.816406 22.5-54.363281 22.5-.03125 0-.0625 0-.097656 0-12.53125 0-24.296875 4.867187-33.136719 13.707031-8.847656 8.847656-13.71875 20.628906-13.707031 33.171875zm0 0"/><path d="m415.421875 135.324219 21.230469-21.226563 45.535156 45.53125-21.230469 21.230469zm0 0"/></g><path d="m211.914062 313.152344-91.992187-91.992188c-17.558594-17.558594-17.558594-46.128906 0-63.6875 8.507813-8.507812 19.816406-13.191406 31.84375-13.191406s23.335937 4.683594 31.84375 13.191406l91.992187 91.992188zm0 0" fill="#dd8858"/><path d="m376.285156 512h-240.183594v-30.023438c24.832032 0 45.035157-20.203124 45.035157-45.03125v-.738281l16.160156-164.050781c3-30.429688 28.316406-53.378906 58.894531-53.378906s55.898438 22.949218 58.894532 53.378906l16.164062 164.050781v.738281c0 24.828126 20.203125 45.03125 45.035156 45.03125zm0 0" fill="#d97f4a"/><path d="m296.1875 339.171875-63.6875-63.6875 91.996094-91.992187c17.558594-17.558594 46.128906-17.558594 63.6875 0 17.558594 17.558593 17.558594 46.128906 0 63.6875zm0 0" fill="#d97f4a"/><path d="m376.285156 481.976562c-24.832031 0-45.035156-20.203124-45.035156-45.03125v-.738281l-16.164062-164.050781c-2.996094-30.429688-28.316407-53.378906-58.894532-53.378906v293.222656h120.09375zm0 0" fill="#b35f49"/></svg>