<?xml version="1.0" encoding="iso-8859-1"?>
<!-- Generator: Adobe Illustrator 19.0.0, SVG Export Plug-In . SVG Version: 6.00 Build 0)  -->
<svg version="1.1" id="Layer_1" xmlns="http://www.w3.org/2000/svg" xmlns:xlink="http://www.w3.org/1999/xlink" x="0px" y="0px"
	 viewBox="0 0 512 512" style="enable-background:new 0 0 512 512;" xml:space="preserve">
<g>
	<path style="fill:#78909C;" d="M239.771,241.566l-31.098-46.646l-21.253-75.514c0,0-68.983-15.833-69.543-18.054
		s-2.781-32.208-2.781-32.208L87.34,56.918l2.781-2.781l29.987,12.217l5.553,29.987l69.881,17.504l20.356,75.505
		c0,0,30.547,39.432,30.547,41.093S239.771,241.566,239.771,241.566z"/>
	<path style="fill:#78909C;" d="M276.422,180.482c-4.265-0.462-12.777-23.323-12.777-23.323V123.28l12.777-18.881l6.104-26.655
		l-27.766-22.772h2.781l27.766,17.219l5.553-11.106V37.211l8.885-23.883L295.863,0l6.664,13.328l-6.664,26.104V64.79l-5.553,9.072
		l-4.993,20.551l-3.892,13.887l-9.436,17.77l-1.111,27.766l11.657,17.583L276.422,180.482z"/>
	<path style="fill:#78909C;" d="M283.086,296.538c1.661-1.111,11.604-7.277,11.604-7.277s31.711-0.613,33.381,0
		s28.325-4.291,28.325-4.291l21.839,5.784l12.03,11.337l29.987,4.443h32.768l23.323,6.664l8.512-6.664l20.915,21.102h-3.332
		l-14.989-11.106l-9.996,1.67l-16.659-3.892c0,0-29.436-3.892-31.098-3.332c-1.67,0.56-45.536-4.443-45.536-4.443l10.271,11.106
		l20.267,19.618l3.892,12.03l18.881,23.51h-5.002l-20.542-22.95l-2.781-12.59l-30.911-30.724l-19.067-12.217l-13.878,7.224
		l-6.664-3.332l-29.436,0.56l-26.095,4.443v-6.673H283.086z"/>
	<path style="fill:#78909C;" d="M162.587,267.111c-4.993,0-19.805,2.781-21.289,4.443c-1.484,1.67-15.362,11.844-17.583,13.416
		s-5.553,12.128-5.553,12.128l-16.109,9.436l-16.659-17.219L96.5,275.436l7.774,9.534l-7.224-15.087l-16.659,16.935l17.77,25.82
		l23.332-10.546l5.002-17.121l17.068-7.517l25.687-1.457L162.587,267.111z"/>
</g>
<g>
	<path style="fill:#455A64;" d="M263.654,258.226l19.991-12.217v-25.544l8.334-39.432l-4.007-41.777l25.109-27.108l2.772-14.438
		l32.768-27.952V54.208l9.996-12.217v-5.544l-16.109,15.362l-1.111,15.735l-36.091,27.393l-2.781,13.887l-26.095,27.046
		c0,0,1.111,25.731,1.111,27.393c0,1.661-6.113,3.332-6.113,3.332s1.111,22.772,1.67,24.434c0.551,1.67-9.445,8.734-9.445,11.666
		c0,2.932,3.332,19.991,3.332,19.991L263.654,258.226z"/>
	<path style="fill:#455A64;" d="M230.336,306.534c-2.221-0.56-15.549-15.549-15.549-15.549l-6.664-32.768l6.664-16.109
		l-46.629-46.966c0,0-1.386-26.931-3.056-28.601s5.278,0,5.278,0l3.287,26.931l47.793,41.973l3.332,10.6l-4.443,14.394l9.996,23.323
		v22.772H230.336z"/>
</g>
<g>
	<path style="fill:#263238;" d="M235.311,499.792c-2.612-12.208-6.086-32.777-7.197-34.438c-1.111-1.661-8.325-74.972-8.325-74.972
		l-7.224-6.664l3.332-38.321l-15.593-11.666l-13.843-22.755l-17.77-31.098l-11.106-7.224v-14.989l7.774-3.332l1.661-8.334
		l-14.989-30.547l-40.542-24.434c0,0-33.87,1.111-35.54,0c-1.662-1.111-17.77-16.659-17.77-16.659l6.664-2.959l12.777,12.954h17.77
		l-8.885-6.664h6.664l13.328,5.553l12.217,3.341l38.312,21.102l23.883,35.54l-1.111,23.323l9.996,13.887l13.878,23.883l13.887,9.996
		l7.774-8.334l1.111-33.319l6.664-30.547l18.881-31.657l-3.892-15.549l-16.659-21.102l-0.551-12.777l-10.555-28.876l-42.39-44.887
		l-3.865-65.252l5.509,7.224l4.469,53.586l45.163,45.998l10.555,26.655l2.221,15.922l17.77,21.839l6.104,19.44l-20.542,41.653
		l1.111,44.985l6.664-2.221l4.167-40.258l11.666-11.666l25.269-13.603l28.317-31.098v-8.885l26.655-20.178l10.413-57.566
		l5.553-11.106l27.766-27.215l26.655-26.104v7.224l-46.646,52.759l-9.862,47.206l-1.67,21.662l-23.874,23.323l-1.662,11.648
		l-22.213,22.772l-24.985,18.33l-8.885,11.666l-2.221,22.213l5.553,2.221l8.885-26.104l29.427-19.991l47.206-17.219l-2.781,6.664
		l-42.755,16.659l-22.213,19.991l-11.106,33.879l-11.666,14.438l-24.985,18.508l6.664,32.022l7.774,8.885l31.648-8.885l43.501-2.221
		l35.54,24.434h-7.961l-29.987-18.694l-41.093,5.926l-23.323,17.219c0,0,12.777,50.538,12.777,52.759s30.298,59.494,30.298,59.494
		L235.311,499.792z"/>
	<path style="fill:#263238;" d="M205.342,328.888c-1.67,0.968-19.44,23.181-19.44,23.181l-16.659,31.098
		c0,0-14.989,28.876-16.659,28.876c-1.661,0-27.766-3.332-27.766-3.332l-5.553-13.887c0,0,0.56-9.445,2.221-10.555
		c1.67-1.111,13.887-5.553,13.887-5.553l9.996,6.113v14.438l3.332-1.67l-0.56-16.109l-12.768-8.698l-16.109,7.037
		c0,0-7.215,11.106-4.993,14.438c2.221,3.332,6.664,17.77,6.664,17.77l31.098,7.224l21.653-31.657l17.788-31.098l19.423-19.254
		L205.342,328.888z"/>
	<path style="fill:#263238;" d="M359.586,236.217c0,0,47.215,25.5,48.877,25.5c1.661,0,33.879,7.774,33.879,7.774
		s15.549-9.996,16.659-11.666s0-33.319,0-33.319l-25.544-21.102l-23.323,10.085l-4.816,18.792l8.148,8.885l3.332-0.56l-6.664-8.885
		l3.332-14.438l18.33-8.885l20.551,18.881v26.104c0,0-9.836,8.565-13.328,7.774c-29.552-6.699-29.436-7.224-29.436-7.224
		l-40.969-26.824L359.586,236.217z"/>
	<path style="fill:#263238;" d="M106.496,183.254l-26.104-35.54c0,0-26.655-21.102-28.876-21.102
		c-2.221,0-21.813,5.118-22.515,6.477c-0.693,1.351-14.127,11.293-14.687,13.514c-0.56,2.221-8.085,47.126-8.085,47.126
		l16.411,14.794l12.03-5.829l-2.594-3.332l-8.885,4.443c0,0-12.217-9.445-12.217-11.106c0-1.662,6.664-43.874,6.664-43.874
		l14.438-12.954l19.449-2.594l23.323,20.551l11.657,23.874L106.496,183.254z"/>
</g>
<path style="fill:#004D40;" d="M259.763,467.575c-55.798,0-109.33,9.587-159.122,27.126C91.249,498.006,93.728,512,103.679,512
	h312.158c9.96,0,12.43-13.994,3.039-17.299C369.093,477.162,315.561,467.575,259.763,467.575z"/>
<g>
</g>
<g>
</g>
<g>
</g>
<g>
</g>
<g>
</g>
<g>
</g>
<g>
</g>
<g>
</g>
<g>
</g>
<g>
</g>
<g>
</g>
<g>
</g>
<g>
</g>
<g>
</g>
<g>
</g>
</svg>
